<?xml version="1.0" encoding="UTF-8" standalone="no"?>
<!DOCTYPE svg PUBLIC "-//W3C//DTD SVG 1.1//EN" "http://www.w3.org/Graphics/SVG/1.1/DTD/svg11.dtd">
<!-- Generado por Microsoft Visio, SVG Export title.svg Page-1 -->
<svg xmlns="http://www.w3.org/2000/svg" xmlns:xlink="http://www.w3.org/1999/xlink" xmlns:ev="http://www.w3.org/2001/xml-events"
		xmlns:v="http://schemas.microsoft.com/visio/2003/SVGExtensions/" width="210" height="8.26772in"
		viewBox="0 0 1647.78 595.276" xml:space="preserve" color-interpolation-filters="sRGB" class="st10">
	<v:documentProperties v:langID="3082" v:metric="true" v:viewMarkup="false">
		<v:userDefs>
			<v:ud v:nameU="msvSubprocessMaster" v:prompt="" v:val="VT4(Rectangle)"/>
			<v:ud v:nameU="msvNoAutoConnect" v:val="VT0(1):26"/>
		</v:userDefs>
	</v:documentProperties>

	<style type="text/css">
	<![CDATA[
		.st1 {fill:#4baadc;stroke:none;stroke-linecap:butt;stroke-width:9.375}
		.st2 {fill:#ffffff;stroke:none;stroke-linecap:butt;stroke-width:9.375}
		.st3 {fill:none}
		.st4 {stroke:#1e69a0;stroke-linecap:round;stroke-linejoin:round;stroke-width:18.75}
		.st5 {stroke:#4baadc;stroke-linecap:round;stroke-linejoin:round;stroke-width:18.75}
		.st6 {fill:none;stroke:#1e69a0;stroke-linecap:round;stroke-linejoin:round;stroke-width:18.75}
		.st7 {fill:none;stroke:none;stroke-width:0.25}
		.st8 {fill:#305497;font-family:Poppins SemiBold;font-size:16.6667em}
		.st9 {fill:#90aadb;font-size:1em}
		.st10 {fill:none;fill-rule:evenodd;font-size:12px;overflow:visible;stroke-linecap:square;stroke-miterlimit:3}
	]]>
	</style>

	<g v:mID="0" v:index="1" v:groupContext="foregroundPage">
		<v:userDefs>
			<v:ud v:nameU="msvThemeOrder" v:val="VT0(0):26"/>
		</v:userDefs>
		<title>Página-1</title>
		<v:pageProperties v:drawingScale="0.0393701" v:pageScale="0.0393701" v:drawingUnits="24" v:shadowOffsetX="9"
				v:shadowOffsetY="-9"/>
		<g id="group1-1" transform="translate(42.5197,-240.945)" v:mID="1" v:groupContext="group">
			<v:userDefs/>
			<title>des-ink-well</title>
			<desc>Created with Sketch.</desc>
			<g id="group2-2" v:mID="2" v:groupContext="group">
				<title>General</title>
				<g id="group3-3" v:mID="3" v:groupContext="group">
					<title>des-ink-well</title>
					<g id="shape4-4" v:mID="4" v:groupContext="shape" transform="translate(89.9439,-0.000817686)">
						<title>Fill-564</title>
						<path d="M109.1 506.73 L96.73 500.54 C92.57 498.47 89.95 494.22 89.95 489.58 L89.95 464.45 L32.71 464.45
									 L32.71 489.58 C32.71 494.22 30.08 498.47 25.93 500.54 L13.56 506.73 C5.25 510.88 0 519.38 0
									 528.67 L0 583.01 C0 589.78 5.49 595.28 12.27 595.28 L110.39 595.28 C117.17 595.28 122.65 589.78
									 122.65 583.01 L122.65 528.67 C122.65 519.38 117.4 510.88 109.1 506.73 Z" class="st1"/>
					</g>
					<g id="shape5-6" v:mID="5" v:groupContext="shape" transform="translate(19.6318,-49.0599)">
						<title>Fill-565</title>
						<path d="M0 594.2 C0.51 594.9 0.81 595.28 0.81 595.28 C0.81 595.28 40.67 574.49 62.14 521.68 C83.6 468.88
									 70.31 431.74 70.31 431.74 C70.31 431.74 14.26 487.03 0 594.2 Z" class="st2"/>
					</g>
					<g id="shape6-8" v:mID="6" v:groupContext="shape" transform="translate(0,-50.1323)">
						<title>Fill-566</title>
						<path d="M89.95 432.81 C89.95 432.81 0 455.3 0 530.93 C0 566.37 15.87 590.14 19.63 595.28 C33.89 488.11 89.95
									 432.81 89.95 432.81 Z" class="st2"/>
					</g>
					<g id="shape7-10" v:mID="7" v:groupContext="shape" transform="translate(16.3537,0)">
						<title>Stroke-567</title>
						<path d="M0 595.28 C0 455.25 73.59 382.68 73.59 382.68 L0 595.28 Z" class="st3"/>
						<path d="M0 595.28 C0 455.25 73.59 382.68 73.59 382.68" class="st4"/>
					</g>
					<g id="shape8-13" v:mID="8" v:groupContext="shape" transform="translate(49.0612,-98.1224)">
						<title>Stroke-568</title>
						<path d="M0 595.28 C0 595.28 25.72 590.14 36.8 559.66 L0 595.28 Z" class="st3"/>
						<path d="M0 595.28 C0 595.28 25.72 590.14 36.8 559.66" class="st5"/>
					</g>
					<g id="shape9-16" v:mID="9" v:groupContext="shape" transform="translate(21.129,-147.184)">
						<title>Stroke-569</title>
						<path d="M7.49 595.28 C7.49 595.28 0 571.53 12.25 559.29 L7.49 595.28 Z" class="st3"/>
						<path d="M7.49 595.28 C7.49 595.28 0 571.53 12.25 559.29" class="st5"/>
					</g>
					<g id="shape10-19" v:mID="10" v:groupContext="shape" transform="translate(0,-49.0612)">
						<title>Stroke-570</title>
						<path d="M89.95 431.74 C89.95 431.74 0 454.22 0 529.86 C0 570.06 20.44 595.28 20.44 595.28 C20.44 595.28
									 60.3 574.49 81.77 521.68 C103.23 468.87 89.95 431.74 89.95 431.74 Z" class="st6"/>
					</g>
					<g id="shape11-21" v:mID="11" v:groupContext="shape" transform="translate(114.476,-130.83)">
						<title>Stroke-571</title>
						<path d="M0 595.28 L73.59 595.28 L0 595.28 Z" class="st3"/>
						<path d="M0 595.28 L73.59 595.28" class="st4"/>
					</g>
					<g id="shape12-24" v:mID="12" v:groupContext="shape" transform="translate(89.9455,0)">
						<title>Stroke-572</title>
						<path d="M89.95 464.45 L89.95 489.57 C89.95 494.22 92.57 498.47 96.72 500.54 L109.1 506.73 C117.4 510.88
									 122.65 519.38 122.65 528.67 L122.65 583.01 C122.65 589.78 117.16 595.28 110.39 595.28 L12.27
									 595.28 C5.49 595.28 0 589.78 0 583.01 L0 528.67 C0 519.38 5.25 510.88 13.56 506.73 L25.93 500.54
									 C30.08 498.47 32.71 494.22 32.71 489.57 L32.71 464.45 L89.95 464.45 Z" class="st3"/>
						<path d="M89.95 464.45 L89.95 489.57 C89.95 494.22 92.57 498.47 96.72 500.54 L109.1 506.73 C117.4 510.88
									 122.65 519.38 122.65 528.67 L122.65 583.01 C122.65 589.78 117.16 595.28 110.39 595.28 L12.27
									 595.28 C5.49 595.28 0 589.78 0 583.01 L0 528.67 C0 519.38 5.25 510.88 13.56 506.73 L25.93 500.54
									 C30.08 498.47 32.71 494.22 32.71 489.57 L32.71 464.45" class="st4"/>
					</g>
					<g id="shape13-27" v:mID="13" v:groupContext="shape" transform="translate(106.298,-24.5298)">
						<title>Stroke-573</title>
						<path d="M13.68 542.09 L5.95 546.73 C2.26 548.95 0 552.94 0 557.25 L0 595.28 L13.68 542.09 Z" class="st3"/>
						<path d="M13.68 542.09 L5.95 546.73 C2.26 548.95 0 552.94 0 557.25 L0 595.28" class="st4"/>
					</g>
				</g>
			</g>
		</g>
		<g id="shape14-30" v:mID="14" v:groupContext="shape" transform="translate(276.378,-110.156)">
			<title>Hoja.14</title>
			<desc>ImagiNotes</desc>
			<v:textBlock v:margins="rect(4,4,4,4)" v:tabSpace="42.5197"/>
			<v:textRect cx="616.535" cy="407.794" width="1233.08" height="374.963"/>
			<rect x="0" y="220.313" width="1233.07" height="374.963" class="st7"/>
			<text x="28.24" y="467.79" class="st8" v:langID="3082"><v:paragraph v:horizAlign="1"/><v:tabList/>Imagi<tspan
						class="st9">Notes</tspan></text>		</g>
	</g>
</svg>
